<svg width="24" height="24" viewBox="0 0 24 24" fill="none" xmlns="http://www.w3.org/2000/svg">
<path opacity="0.3" d="M1.82168 12.0963L2.63211 10.2805C2.74581 10.0453 2.94499 9.86228 3.18901 9.76887C3.43303 9.67546 3.70349 9.67867 3.94522 9.77787L4.85824 10.178C5.84991 10.6444 6.93229 10.8862 8.02817 10.8862C9.12405 10.8862 10.2064 10.6444 11.1981 10.178C12.6961 9.48351 14.3275 9.12378 15.9786 9.12378C17.6298 9.12378 19.2611 9.48351 20.7592 10.178L21.6619 10.578C21.899 10.6899 22.0843 10.8883 22.1797 11.1325C22.2751 11.3767 22.2734 11.6482 22.1749 11.8912L21.3644 13.7069C21.2507 13.9422 21.0516 14.1252 20.8075 14.2186C20.5635 14.312 20.2931 14.3088 20.0513 14.2096L19.1793 13.8095C18.1877 13.3431 17.1053 13.1013 16.0094 13.1013C14.9135 13.1013 13.8312 13.3431 12.8395 13.8095C11.3415 14.504 9.71011 14.8637 8.05895 14.8637C6.40778 14.8637 4.77644 14.504 3.27841 13.8095L2.37565 13.4094C2.13116 13.305 1.93676 13.1097 1.83342 12.8648C1.73008 12.6198 1.72587 12.3443 1.82168 12.0963ZM2.33461 20.4777L3.23737 20.8777C4.73615 21.5695 6.3672 21.9277 8.01791 21.9277C9.66863 21.9277 11.2997 21.5695 12.7985 20.8777C13.7901 20.4113 14.8725 20.1695 15.9684 20.1695C17.0643 20.1695 18.1466 20.4113 19.1383 20.8777L20.0513 21.2881C20.2931 21.3873 20.5635 21.3905 20.8075 21.2971C21.0516 21.2037 21.2507 21.0207 21.3644 20.7854L22.1749 18.9696C22.2734 18.7267 22.2751 18.4552 22.1797 18.211C22.0843 17.9668 21.899 17.7684 21.6619 17.6565L20.7592 17.2462C19.2611 16.5517 17.6298 16.192 15.9786 16.192C14.3275 16.192 12.6961 16.5517 11.1981 17.2462C10.2064 17.7126 9.12405 17.9544 8.02817 17.9544C6.93229 17.9544 5.84991 17.7126 4.85824 17.2462L3.94522 16.8461C3.70349 16.7469 3.43303 16.7437 3.18901 16.8371C2.94499 16.9305 2.74581 17.1135 2.63211 17.3488L1.82168 19.1748C1.72623 19.4165 1.7261 19.6855 1.82131 19.9273C1.91653 20.1692 2.09998 20.3659 2.33461 20.4777Z" fill="black"/>
<path d="M1.82137 5.01817L2.63181 3.20239C2.7455 2.96713 2.94468 2.78413 3.1887 2.69071C3.43272 2.5973 3.70319 2.60052 3.94492 2.69971L4.85794 3.11006C5.84961 3.57649 6.93198 3.81833 8.02787 3.81833C9.12375 3.81833 10.2061 3.57649 11.1978 3.11006C12.6966 2.4183 14.3276 2.06006 15.9783 2.06006C17.629 2.06006 19.2601 2.4183 20.7589 3.11006L21.6616 3.51015C21.8963 3.62194 22.0797 3.81862 22.1749 4.06046C22.2701 4.30229 22.27 4.57125 22.1746 4.813L21.3641 6.62878C21.2504 6.86404 21.0513 7.04704 20.8072 7.14046C20.5632 7.23387 20.2928 7.23065 20.051 7.13146L19.179 6.74163C18.1874 6.2752 17.105 6.03336 16.0091 6.03336C14.9132 6.03336 13.8308 6.2752 12.8392 6.74163C11.3412 7.43607 9.70981 7.7958 8.05864 7.7958C6.40748 7.7958 4.77613 7.43607 3.2781 6.74163L2.37534 6.33128C2.13085 6.22685 1.93645 6.03158 1.83311 5.78663C1.72977 5.54167 1.72556 5.26617 1.82137 5.01817Z" fill="black"/>
</svg>
